**ABCDEFGHIJKLMNOPQRSTUVWXYZabcdefghijklmnopqrstuvwxyz**************************
**PARASOLID !"#$%&'()*+,-./:;<=>?@[\]^_`{|}~0123456789**************************
**PART1;
MC=unknown;
MC_MODEL=unknown;
MC_ID=unknown;
OS=unknown;
OS_RELEASE=unknown;
FRU=Parasolid 32.1.157;
APPL=Onshape;
SITE=unknown;
USER=unknown;
FORMAT=text;
GUISE=transmit;
KEY=BTGapi::writeModels_.xmt;
FILE=BTGapi::writeModels_.xmt;
DATE=2020-05-28T17:01:19 (UTC);
**PART2;
SCH=SCH_3201157_32001;
USFLD_SIZE=0;
**PART3;
**END_OF_HEADER*****************************************************************
T51 : TRANSMIT FILE created by modeller version 320115723 SCH_3201157_32001_1300
6229 0 10 20 CCCCCCCI4 mesh1006 0 I8 polyline1008 0 CCCCCCCCCCA16 mesh_offset_da
ta206 0 Z1 59 0 0 0 0 0 0 0 0 0 1e3 1e-8 0 0 0 1 0 1 2 0 11 255 2 57 0 1 3 4 1 5
 0 0 0 12 34 CCCCCCI4 mesh1006 0 I8 polyline1008 0 CCCCCCCDI5 owner1040 0 CCCCCC
I13 boundary_mesh1006 0 I17 boundary_polyline1008 0 CCCA16 index_map_offset0 0 1
 dA9 index_map82 0 A17 node_id_index_map82 0 A20 schema_embedding_map82 0 A5 chi
ld12 0 A14 lowest_node_id0 0 1 dA16 mesh_offset_data206 0 Z3 84 6 7 0 0 0 0 0 0
 1e3 1e-8 2 8 9 1 0 1 1 10 11 12 0 0 0 13 14 0 0 0 0 0 0 0 0 100 255 4 58 2 0 0
 1 0 0 0 1 0 0 0 1 -1.246289768020052 -.0660738125217963 .1234848220271762 1 1 ?
11 5 54 0 1 15 16 1 17 2 0 0 12 15 122 18 19 0 0 0 0 0 0 1e3 1e-8 5 20 21 1 0 1
 1 22 23 24 0 0 0 25 26 0 0 0 0 0 0 0 0 100 16 55 5 0 0 1 0 0 0 1 0 0 0 1 .11062
7571277151 .00309814920826175 .121453401194813 1 1 ?11 17 51 0 1 27 28 1 29 5 0
 0 12 27 84 30 31 0 0 0 0 0 0 1e3 1e-8 17 32 33 1 0 1 1 34 35 36 0 0 0 37 38 0 0
 0 0 0 0 0 0 100 28 52 17 0 0 1 0 0 0 1 0 0 0 1 -1.50126280430497 -.104584607157
1208 .1219186722788066 1 1 ?11 29 48 0 1 39 40 1 41 17 0 0 12 39 67 42 43 0 0 0
 0 0 0 1e3 1e-8 29 33 44 1 0 1 1 45 46 0 47 0 0 48 0 49 0 0 0 0 0 0 0 100 40 49
 29 0 0 1 0 0 0 1 0 0 0 1 -.665185933253012 -.03140194104973135 .124528048139519
2 1 1 ?11 41 45 0 1 9 50 1 51 29 0 0 12 9 67 52 53 0 0 0 0 0 0 1e3 1e-8 41 3 54
 1 0 1 1 55 56 0 57 0 0 58 0 59 0 0 0 0 0 0 0 100 50 46 41 0 0 1 0 0 0 1 0 0 0 1
 -.989577000421642 -.037575700910966 .1198522969557082 1 1 ?11 51 42 0 1 32 60 1
 61 41 0 0 12 32 65 62 63 0 0 0 0 0 0 1e3 1e-8 51 64 27 1 0 1 1 65 66 0 0 0 0 67
 0 0 0 0 0 0 0 0 0 100 60 43 51 0 0 1 0 0 0 1 0 0 0 1 -1.500249372264855 -.10392
826806956 .12050167330916 1 1 ?11 61 39 0 1 68 69 1 70 51 0 0 12 68 122 71 72 0
 0 0 0 0 0 1e3 1e-8 61 21 73 1 0 1 1 74 75 76 0 0 0 77 78 0 0 0 0 0 0 0 0 100 69
 40 61 0 0 1 0 0 0 1 0 0 0 1 .0809072150905792 -.01931895473079525 .118882249210
758 1 1 ?11 70 36 0 1 44 79 1 80 61 0 0 12 44 67 81 82 0 0 0 0 0 0 1e3 1e-8 70 3
9 83 1 0 1 1 84 85 0 86 0 0 87 0 88 0 0 0 0 0 0 0 100 79 37 70 0 0 1 0 0 0 1 0 0
 0 1 -.523278700623831 -.01729037047708215 .1215272741870764 1 1 ?11 80 33 0 1 8
9 90 1 91 70 0 0 12 89 65 92 93 0 0 0 0 0 0 1e3 1e-8 80 94 8 1 0 1 1 95 96 0 0 0
 0 97 0 0 0 0 0 0 0 0 0 100 90 34 80 0 0 1 0 0 0 1 0 0 0 1 -.594677483364486 -.0
247497658552832 .125362114480216 1 1 ?11 91 30 0 1 94 98 1 99 80 0 0 12 94 65 10
0 101 0 0 0 0 0 0 1e3 1e-8 91 0 89 1 0 1 1 102 103 0 0 0 0 104 0 0 0 0 0 0 0 0 0
 100 98 31 91 0 0 1 0 0 0 1 0 0 0 1 -1.632491035739805 -.1017095009350504 .11675
64939094446 1 1 ?11 99 27 0 1 21 105 1 106 91 0 0 12 21 122 107 108 0 0 0 0 0 0
 1e3 1e-8 99 15 68 1 0 1 1 109 110 111 0 0 0 112 113 0 0 0 0 0 0 0 0 100 105 28
 99 0 0 1 0 0 0 1 0 0 0 1 .0874480763894459 -.00498312275007297 .123793312078773
4 1 1 ?11 106 24 0 1 8 114 1 115 99 0 0 12 8 65 116 117 0 0 0 0 0 0 1e3 1e-8 106
 89 3 1 0 1 1 118 119 0 0 0 0 120 0 0 0 0 0 0 0 0 0 100 114 25 106 0 0 1 0 0 0 1
 0 0 0 1 -1.245972619383038 -.0668890857303175 .126548519323511 1 1 ?11 115 21 0
 1 121 122 1 123 106 0 0 12 121 79 124 125 0 0 0 0 0 0 1e3 1e-8 115 73 64 1 0 1
 1 126 127 128 0 0 0 129 130 0 0 0 0 0 0 0 0 100 122 22 115 0 0 1 0 0 0 1 0 0 0
 1 .1021850395604216 .00289293837234428 .1251297736307196 1 1 ?11 123 18 0 1 73
 131 1 132 115 0 0 12 73 122 133 134 0 0 0 0 0 0 1e3 1e-8 123 68 121 1 0 1 1 135
 136 137 0 0 0 138 139 0 0 0 0 0 0 0 0 100 131 19 123 0 0 1 0 0 0 1 0 0 0 1 .082
7675312757492 -.02497128024697305 .1199288810940784 1 1 ?11 132 15 0 1 20 140 1
 141 123 0 0 12 20 67 142 143 0 0 0 0 0 0 1e3 1e-8 132 54 15 1 0 1 1 144 145 0 1
46 0 0 147 0 148 0 0 0 0 0 0 0 100 140 16 132 0 0 1 0 0 0 1 0 0 0 1 .11781807835
15142 .00742489167627355 .0758541822394825 1 1 ?11 141 12 0 1 54 149 1 150 132 0
 0 12 54 122 151 152 0 0 0 0 0 0 1e3 1e-8 141 9 20 1 0 1 1 153 154 155 0 0 0 156
 157 0 0 0 0 0 0 0 0 100 149 13 141 0 0 1 0 0 0 1 0 0 0 1 .0820937703474234 -.01
133321223975002 .124555659747808 1 1 ?11 150 9 0 1 64 158 1 159 141 0 0 12 64 12
2 160 161 0 0 0 0 0 0 1e3 1e-8 150 121 32 1 0 1 1 162 163 164 0 0 0 165 166 0 0
 0 0 0 0 0 0 100 158 10 150 0 0 1 0 0 0 1 0 0 0 1 .094682132320931 .006518413596
79406 .124304034048312 1 1 ?11 159 6 0 1 83 167 1 168 150 0 0 12 83 67 169 170 0
 0 0 0 0 0 1e3 1e-8 159 44 0 1 0 1 1 171 172 0 173 0 0 174 0 175 0 0 0 0 0 0 0 1
00 167 7 159 0 0 1 0 0 0 1 0 0 0 1 -.733535542455454 -.02646043021157925 .123976
8221591422 1 1 ?11 168 3 0 1 33 176 1 0 159 0 0 12 33 122 177 178 0 0 0 0 0 0 1e
3 1e-8 168 27 39 1 0 1 1 179 180 181 0 0 0 182 183 0 0 0 0 0 0 0 0 100 176 4 168
 0 0 1 0 0 0 1 0 0 0 1 .0912712408517644 .00265300418437686 .124307705272068 1 1
 ?81 255 1 177 122 184 33 185 0 0 0 186 70 11 CI9 list_type0 0 1 uI10 notransmit
0 0 1 lCCCDCCDI12 finger_index0 0 1 dI12 finger_block1012 0 CZ178 0 4 T33 0 0 3
 20 1 187 187 13 255 179 39 0 33 0 188 0 0 189 0 51 255 180 38 0 188 190 0 0 -0
 50547296634807e-30 254e-6 0 0 -1 .8255 -1 0 0 31 255 181 63 0 191 192 0 0 +0 50
5395201276324e-31 0 0 0 1 1 0 0 .825373 19 8 CCCCCCCA5 owner12 0 Z182 13 0 33 18
9 0 193 V0 16 255 183 7 194 ?195 0 196 197 0 0 33 81 1 194 45 198 183 0 0 199 20
0 201 17 255 195 0 202 195 195 0 203 183 0 0 +16 196 28 199 ?204 183 191 192 0 0
 33 31 197 9 0 183 205 192 0 +0 50547296634807e-30 254e-6 0 0 1 1 0 0 .8255 31 2
05 113 0 206 0 197 0 +0 505395201276324e-31 254e-6 0 0 1 1 0 0 .825373 31 192 33
 0 196 197 181 0 +0 50547296634807e-30 0 0 0 1 1 0 0 .8255 16 206 85 207 ?208 19
1 0 205 0 0 33 81 1 207 117 198 206 0 0 209 210 211 17 208 0 212 208 208 0 213 2
06 0 0 +16 191 79 209 ?214 196 206 181 0 0 33 81 1 209 116 198 191 0 0 215 207 2
16 17 214 0 217 214 214 0 218 191 0 0 +15 255 217 61 0 214 219 220 17 218 0 221
 218 218 0 214 191 0 0 -15 221 94 0 218 222 0 14 255 222 95 210 ?0 219 212 179 2
23 -0 0 0 219 193 81 1 210 118 198 222 0 0 207 224 225 14 219 23 224 ?222 226 21
7 179 190 -0 0 222 226 193 15 212 93 0 208 222 221 51 223 110 0 222 0 227 0 +0 5
05395201276324e-31 -.025146 0 0 1 .825373 1 0 0 13 193 14 0 0 0 0 0 0 182 188 14
 188 35 200 ?226 0 228 179 180 -0 0 226 0 193 81 1 200 46 198 188 0 0 194 215 22
9 14 226 1 230 ?219 188 231 179 227 +0 0 219 188 193 15 228 34 0 203 188 232 17
 203 0 228 203 203 0 195 183 0 0 -15 232 36 0 204 188 0 17 204 0 232 204 204 0 2
33 196 0 0 +17 233 0 220 233 233 0 204 196 0 0 -15 220 27 0 233 219 0 81 1 230 1
20 198 226 0 0 224 0 234 15 231 69 0 213 226 202 50 255 227 3 0 226 223 190 0 +0
 0 254e-6 0 0 1 1 0 0 50 190 32 0 219 227 180 0 +0 0 0 0 0 1 1 0 0 17 213 0 231
 213 213 0 208 206 0 0 -15 202 6 0 195 226 0 80 255 1 198 235 236 9000 0 0 0 0 3
 6 0 0 0 FFTFTFTTFFFFFF1 81 1 224 119 198 219 0 0 210 230 237 82 255 3 234 10 2
 2 82 3 237 10 1 2 79 255 9 236 BTI/DetId81 1 215 49 198 33 0 185 200 209 238 82
 3 229 6 0 2 81 1 185 121 239 33 215 177 0 0 240 82 3 238 6 0 3 80 1 239 184 241
 8038 0 0 0 0 0 0 0 0 0 TTTTTTTTTTTTTF10 98 255 6 240 80 97 114 116 32 49 79 14
 241 SDL/TYSA_UNAME82 3 225 10 0 2 82 3 216 10 0 1 82 3 211 10 1 1 81 1 199 44 1
98 196 0 0 0 194 242 82 3 242 6 0 1 82 3 201 6 1 1 19 189 40 0 33 0 182 179 S0 7
4 4 CI16 index_map_offset0 0 1 dCCZ20 187 3 0 0 230 185 177 0 0 0 0 0 0 0 0 0 0
 0 0 0 0 0 0 0 80 1 184 243 244 8017 0 0 0 0 0 0 0 0 0 TTTTTTTTTTTTTF3 84 255 6
 186 Part 179 13 244 SDL/TYSA_NAME81 1 169 67 184 83 245 0 0 0 246 70 170 0 4 T8
3 0 0 5 20 1 247 247 13 171 29 0 83 0 248 0 0 249 0 54 255 172 57 0 248 0 0 0 -0
 0 726888431095646e-19 0 0 1 .000267742602007584 .00370332 1 0 0 29 255 173 24 0
 175 250 0 0 0 .0037663175360713 19 174 35 0 83 249 0 251 V0 18 255 175 22 252 2
53 0 254 173 ?83 81 1 252 61 198 175 0 0 255 256 257 17 253 0 258 253 253 175 0
 0 0 0 ?18 254 17 255 259 175 0 250 ?83 81 1 255 60 198 254 0 0 0 252 260 17 259
 0 261 259 259 254 0 0 0 0 ?29 250 19 0 254 0 173 0 0 -.00362093984985217 15 261
 44 0 259 248 0 14 248 45 262 ?0 0 258 171 172 -0 0 0 0 251 81 1 262 65 263 248
 256 0 0 0 264 15 258 59 0 253 248 261 13 251 34 0 0 0 0 0 0 174 248 80 1 263 0
 265 8001 0 0 0 0 3 5 0 0 0 FFFFTFTFFFFFFF2 81 1 256 62 198 248 0 262 252 266 26
7 83 255 3 264 .917647058823529 .2666666666666665 .0705882352941177 81 1 266 63
 198 83 0 268 256 0 269 82 3 267 6 0 2 81 1 268 64 270 83 266 245 0 0 271 82 3 2
69 6 0 3 80 1 270 263 272 8040 0 0 0 0 3 5 0 0 0 TTTFFFFFFFFFFF2 81 1 245 66 239
 83 268 169 0 0 273 83 3 271 .917647058823529 .2666666666666665 .070588235294117
7 98 6 273 80 97 114 116 32 49 79 17 272 SDL/TYSA_COLOUR_279 15 265 SDL/TYSA_COL
OUR82 3 260 6 0 0 82 3 257 6 1 0 19 249 28 0 83 0 174 171 S0 74 20 247 5 0 0 266
 268 262 245 169 0 0 0 0 0 0 0 0 0 0 0 0 0 0 0 84 6 246 Part 181 1 160 122 184 6
4 274 0 0 0 275 70 161 0 4 T64 0 0 3 20 1 276 276 13 162 39 0 64 0 277 0 0 278 0
 51 163 38 0 277 279 0 0 -0 466590430475142e-31 254e-6 0 0 -1 .762 -1 0 0 31 164
 63 0 280 281 0 0 +0 466512665403396e-31 0 0 0 1 1 0 0 .761873 19 165 13 0 64 27
8 0 282 V0 16 166 7 283 ?284 0 285 286 0 0 64 81 1 283 45 198 166 0 0 287 288 28
9 17 284 0 290 284 284 0 291 166 0 0 +16 285 28 287 ?292 166 280 281 0 0 64 31 2
86 9 0 166 293 281 0 +0 466590430475142e-31 254e-6 0 0 1 1 0 0 .762 31 293 113 0
 294 0 286 0 +0 466512665403396e-31 254e-6 0 0 1 1 0 0 .761873 31 281 33 0 285 2
86 164 0 +0 466590430475142e-31 0 0 0 1 1 0 0 .762 16 294 85 295 ?296 280 0 293
 0 0 64 81 1 295 117 198 294 0 0 297 298 299 17 296 0 300 296 296 0 301 294 0 0
 +16 280 79 297 ?302 285 294 164 0 0 64 81 1 297 116 198 280 0 0 303 295 304 17
 302 0 305 302 302 0 306 280 0 0 +15 305 61 0 302 307 308 17 306 0 309 306 306 0
 302 280 0 0 -15 309 94 0 306 310 0 14 310 95 298 ?0 307 300 162 311 -0 0 0 307
 282 81 1 298 118 198 310 0 0 295 312 313 14 307 23 312 ?310 314 305 162 279 -0
 0 310 314 282 15 300 93 0 296 310 309 51 311 110 0 310 0 315 0 +0 4665126654033
96e-31 -.025146 0 0 1 .761873 1 0 0 13 282 14 0 0 0 0 0 0 165 277 14 277 35 288
 ?314 0 316 162 163 -0 0 314 0 282 81 1 288 46 198 277 0 0 283 303 317 14 314 1
 318 ?307 277 319 162 315 +0 0 307 277 282 15 316 34 0 291 277 320 17 291 0 316
 291 291 0 284 166 0 0 -15 320 36 0 292 277 0 17 292 0 320 292 292 0 321 285 0 0
 +17 321 0 308 321 321 0 292 285 0 0 -15 308 27 0 321 307 0 81 1 318 120 198 314
 0 0 312 0 322 15 319 69 0 301 314 290 50 315 3 0 314 311 279 0 +0 0 254e-6 0 0
 1 1 0 0 50 279 32 0 307 315 163 0 +0 0 0 0 0 1 1 0 0 17 301 0 319 301 301 0 296
 294 0 0 -15 290 6 0 284 314 0 81 1 312 119 198 307 0 0 298 318 323 82 3 322 10
 2 2 82 3 323 10 1 2 81 1 303 49 198 64 0 274 288 297 324 82 3 317 6 0 2 81 1 27
4 121 239 64 303 160 0 0 325 82 3 324 6 0 3 98 6 325 80 97 114 116 32 49 82 3 31
3 10 0 2 82 3 304 10 0 1 82 3 299 10 1 1 81 1 287 44 198 285 0 0 0 283 326 82 3
 326 6 0 1 82 3 289 6 1 1 19 278 40 0 64 0 165 162 S0 74 20 276 3 0 0 318 274 16
0 0 0 0 0 0 0 0 0 0 0 0 0 0 0 0 0 0 84 6 275 Part 181 1 151 122 184 54 327 0 0 0
 328 70 152 0 4 T54 0 0 3 20 1 329 329 13 153 39 0 54 0 330 0 0 331 0 51 154 38
 0 330 332 0 0 -0 816533253331498e-31 254e-6 0 0 -1 1.3335 -1 0 0 31 155 63 0 33
3 334 0 0 +0 816455488259752e-31 0 0 0 1 1 0 0 1.333373 19 156 13 0 54 331 0 335
 V0 16 157 7 336 ?337 0 338 339 0 0 54 81 1 336 45 198 157 0 0 340 341 342 17 33
7 0 343 337 337 0 344 157 0 0 +16 338 28 340 ?345 157 333 334 0 0 54 31 339 9 0
 157 346 334 0 +0 816533253331498e-31 254e-6 0 0 1 1 0 0 1.3335 31 346 113 0 347
 0 339 0 +0 816455488259752e-31 254e-6 0 0 1 1 0 0 1.333373 31 334 33 0 338 339
 155 0 +0 816533253331498e-31 0 0 0 1 1 0 0 1.3335 16 347 85 348 ?349 333 0 346
 0 0 54 81 1 348 117 198 347 0 0 350 351 352 17 349 0 353 349 349 0 354 347 0 0
 +16 333 79 350 ?355 338 347 155 0 0 54 81 1 350 116 198 333 0 0 356 348 357 17
 355 0 358 355 355 0 359 333 0 0 +15 358 61 0 355 360 361 17 359 0 362 359 359 0
 355 333 0 0 -15 362 94 0 359 363 0 14 363 95 351 ?0 360 353 153 364 -0 0 0 360
 335 81 1 351 118 198 363 0 0 348 365 366 14 360 23 365 ?363 367 358 153 332 -0
 0 363 367 335 15 353 93 0 349 363 362 51 364 110 0 363 0 368 0 +0 8164554882597
52e-31 -.025146 0 0 1 1.333373 1 0 0 13 335 14 0 0 0 0 0 0 156 330 14 330 35 341
 ?367 0 369 153 154 -0 0 367 0 335 81 1 341 46 198 330 0 0 336 356 370 14 367 1
 371 ?360 330 372 153 368 +0 0 360 330 335 15 369 34 0 344 330 373 17 344 0 369
 344 344 0 337 157 0 0 -15 373 36 0 345 330 0 17 345 0 373 345 345 0 374 338 0 0
 +17 374 0 361 374 374 0 345 338 0 0 -15 361 27 0 374 360 0 81 1 371 120 198 367
 0 0 365 0 375 15 372 69 0 354 367 343 50 368 3 0 367 364 332 0 +0 0 254e-6 0 0
 1 1 0 0 50 332 32 0 360 368 154 0 +0 0 0 0 0 1 1 0 0 17 354 0 372 354 354 0 349
 347 0 0 -15 343 6 0 337 367 0 81 1 365 119 198 360 0 0 351 371 376 82 3 375 10
 2 2 82 3 376 10 1 2 81 1 356 49 198 54 0 327 341 350 377 82 3 370 6 0 2 81 1 32
7 121 239 54 356 151 0 0 378 82 3 377 6 0 3 98 6 378 80 97 114 116 32 49 82 3 36
6 10 0 2 82 3 357 10 0 1 82 3 352 10 1 1 81 1 340 44 198 338 0 0 0 336 379 82 3
 379 6 0 1 82 3 342 6 1 1 19 331 40 0 54 0 156 153 S0 74 20 329 3 0 0 371 327 15
1 0 0 0 0 0 0 0 0 0 0 0 0 0 0 0 0 0 84 6 328 Part 181 1 142 67 184 20 380 0 0 0
 381 70 143 0 4 T20 0 0 5 20 1 382 382 13 144 29 0 20 0 383 0 0 384 0 54 145 57
 0 383 0 0 0 -468375338513738e-31 0 .016534507475409 0 0 1 -.01445233856506834 .
522452338565068 1 0 0 29 146 24 0 148 385 0 469268746785755e-31 0 .5387869138673
2 19 147 35 0 20 384 0 386 V0 18 148 22 387 388 0 389 146 ?20 81 1 387 61 198 14
8 0 0 390 391 392 17 388 0 393 388 388 148 0 0 0 0 ?18 389 17 390 394 148 0 385
 ?20 81 1 390 60 198 389 0 0 0 387 395 17 394 0 396 394 394 389 0 0 0 0 ?29 385
 19 0 389 0 146 469268746785755e-31 0 -.505717898916441 15 396 44 0 394 383 0 14
 383 45 397 ?0 0 393 144 145 -0 0 0 0 386 81 1 397 65 263 383 391 0 0 0 398 15 3
93 59 0 388 383 396 13 386 34 0 0 0 0 0 0 147 383 81 1 391 62 198 383 0 397 387
 399 400 83 3 398 .980392156862745 .713725490196078 .00392156862745098 81 1 399
 63 198 20 0 401 391 0 402 82 3 400 9 0 2 81 1 401 64 270 20 399 380 0 0 403 82
 3 402 9 0 3 81 1 380 66 239 20 401 142 0 0 404 83 3 403 .980392156862745 .71372
5490196078 .00392156862745098 98 6 404 80 97 114 116 32 49 82 3 395 9 0 0 82 3 3
92 9 1 0 19 384 28 0 20 0 147 144 S0 74 20 382 5 0 0 399 401 397 380 142 0 0 0 0
 0 0 0 0 0 0 0 0 0 0 0 84 6 381 Part 181 1 133 122 184 73 405 0 0 0 406 70 134 0
 4 T73 0 0 3 20 1 407 407 13 135 39 0 73 0 408 0 0 409 0 51 136 38 0 408 410 0 0
 -0 972063396823212e-31 254e-6 0 0 -1 1.5875 -1 0 0 31 137 63 0 411 412 0 0 +0 9
71985631751466e-31 0 0 0 1 1 0 0 1.587373 19 138 13 0 73 409 0 413 V0 16 139 7 4
14 ?415 0 416 417 0 0 73 81 1 414 45 198 139 0 0 418 419 420 17 415 0 421 415 41
5 0 422 139 0 0 +16 416 28 418 ?423 139 411 412 0 0 73 31 417 9 0 139 424 412 0
 +0 972063396823212e-31 254e-6 0 0 1 1 0 0 1.5875 31 424 113 0 425 0 417 0 +0 97
1985631751466e-31 254e-6 0 0 1 1 0 0 1.587373 31 412 33 0 416 417 137 0 +0 97206
3396823212e-31 0 0 0 1 1 0 0 1.5875 16 425 85 426 ?427 411 0 424 0 0 73 81 1 426
 117 198 425 0 0 428 429 430 17 427 0 431 427 427 0 432 425 0 0 +16 411 79 428 ?
433 416 425 137 0 0 73 81 1 428 116 198 411 0 0 434 426 435 17 433 0 436 433 433
 0 437 411 0 0 +15 436 61 0 433 438 439 17 437 0 440 437 437 0 433 411 0 0 -15 4
40 94 0 437 441 0 14 441 95 429 ?0 438 431 135 442 -0 0 0 438 413 81 1 429 118 1
98 441 0 0 426 443 444 14 438 23 443 ?441 445 436 135 410 -0 0 441 445 413 15 43
1 93 0 427 441 440 51 442 110 0 441 0 446 0 +0 971985631751466e-31 -.025146 0 0
 1 1.587373 1 0 0 13 413 14 0 0 0 0 0 0 138 408 14 408 35 419 ?445 0 447 135 136
 -0 0 445 0 413 81 1 419 46 198 408 0 0 414 434 448 14 445 1 449 ?438 408 450 13
5 446 +0 0 438 408 413 15 447 34 0 422 408 451 17 422 0 447 422 422 0 415 139 0
 0 -15 451 36 0 423 408 0 17 423 0 451 423 423 0 452 416 0 0 +17 452 0 439 452 4
52 0 423 416 0 0 -15 439 27 0 452 438 0 81 1 449 120 198 445 0 0 443 0 453 15 45
0 69 0 432 445 421 50 446 3 0 445 442 410 0 +0 0 254e-6 0 0 1 1 0 0 50 410 32 0
 438 446 136 0 +0 0 0 0 0 1 1 0 0 17 432 0 450 432 432 0 427 425 0 0 -15 421 6 0
 415 445 0 81 1 443 119 198 438 0 0 429 449 454 82 3 453 10 2 2 82 3 454 10 1 2
 81 1 434 49 198 73 0 405 419 428 455 82 3 448 6 0 2 81 1 405 121 239 73 434 133
 0 0 456 82 3 455 6 0 3 98 6 456 80 97 114 116 32 49 82 3 444 10 0 2 82 3 435 10
 0 1 82 3 430 10 1 1 81 1 418 44 198 416 0 0 0 414 457 82 3 457 6 0 1 82 3 420 6
 1 1 19 409 40 0 73 0 138 135 S0 74 20 407 3 0 0 449 405 133 0 0 0 0 0 0 0 0 0 0
 0 0 0 0 0 0 0 84 6 406 Part 181 1 124 79 184 121 458 0 0 0 459 70 125 0 4 T121
 0 0 3 20 1 460 460 13 126 62 0 121 0 461 0 0 462 0 51 127 61 0 461 463 0 0 -0 4
276301295304675e-32 254e-6 0 0 -1 .698373 -1 0 0 31 128 50 0 464 465 0 0 +0 4277
07894602213e-31 0 0 0 1 1 0 0 .6985 19 129 19 0 121 462 0 466 V0 16 130 13 467 ?
468 0 469 470 0 0 121 81 1 467 70 198 130 0 0 471 472 473 17 468 0 474 468 468 0
 475 130 0 0 +16 469 8 476 ?477 130 464 478 0 0 121 31 470 15 0 130 478 465 0 +0
 427707894602213e-31 254e-6 0 0 1 1 0 0 .6985 31 478 10 0 469 0 470 0 +0 4276301
295304675e-32 254e-6 0 0 1 1 0 0 .698373 31 465 51 0 479 470 128 0 +0 4276301295
304675e-32 0 0 0 1 1 0 0 .698373 16 479 45 472 ?480 464 0 465 0 0 121 81 1 472 7
1 198 479 0 0 467 476 481 17 480 0 482 480 480 0 483 479 0 0 +16 464 41 471 ?484
 469 479 128 0 0 121 81 1 471 69 198 464 0 0 0 467 485 17 484 0 486 484 484 0 48
7 464 0 0 +15 486 54 0 484 488 0 17 487 0 489 487 487 0 484 464 0 0 -15 489 40 0
 487 490 0 14 490 34 491 ?0 492 482 126 493 -0 0 0 492 466 81 1 491 74 198 490 0
 0 494 495 496 14 492 1 495 ?490 488 497 126 498 +0 0 490 488 466 15 482 39 0 48
0 490 489 50 493 49 0 490 498 463 0 +0 0 0 0 0 1 1 0 0 13 466 20 0 0 0 0 0 0 129
 461 14 461 57 499 ?488 0 500 126 127 +0 0 488 0 466 81 1 499 76 198 461 0 0 495
 501 502 14 488 53 494 ?492 461 503 126 463 -0 0 492 461 466 15 500 56 0 477 461
 504 17 477 0 500 477 477 0 505 469 0 0 +15 504 58 0 483 461 0 17 483 0 504 483
 483 0 480 479 0 0 -17 505 0 497 505 505 0 477 469 0 0 -15 497 6 0 505 492 474 1
5 474 7 0 468 492 0 81 1 494 73 198 488 0 0 476 491 506 15 503 52 0 475 488 486
 51 463 60 0 488 493 127 0 -0 427707894602213e-31 254e-6 0 0 -1 .6985 -1 0 0 17
 475 0 503 475 475 0 468 130 0 0 -81 1 476 72 198 469 0 0 472 494 507 82 3 506 8
 0 2 82 3 507 8 3 1 81 1 495 75 198 492 0 0 491 499 508 81 1 501 77 198 121 0 45
8 499 0 509 82 3 502 8 3 2 81 1 458 78 239 121 501 124 0 0 510 82 3 509 8 0 3 98
 6 510 80 97 114 116 32 49 82 3 508 8 2 2 50 498 3 0 492 0 493 0 +0 0 254e-6 0 0
 1 1 0 0 82 3 496 8 1 2 82 3 485 8 0 1 82 3 481 8 2 1 82 3 473 8 1 1 19 462 63 0
 121 0 129 126 S0 74 20 460 3 0 0 501 458 124 0 0 0 0 0 0 0 0 0 0 0 0 0 0 0 0 0
 84 6 459 Part 181 1 116 65 184 8 511 0 0 0 512 70 117 0 4 T8 0 0 5 20 1 513 513
 13 118 29 0 8 0 514 0 0 515 0 53 255 119 57 0 514 0 0 0 -843739387977547e-32 0
 .001352758468162754 .04572 0 0 1 -1 0 0 19 120 35 0 8 515 0 516 V0 19 515 28 0
 8 0 120 118 S0 13 516 34 0 0 0 0 0 0 120 514 14 514 45 517 ?0 0 0 118 119 -0 0
 0 0 516 81 1 517 63 263 514 518 0 0 0 519 81 1 518 60 198 514 0 517 0 520 521 8
3 3 519 .909803921568627 .572549019607843 .164705882352941 81 1 520 61 198 8 0 5
22 518 0 523 82 3 521 6 0 2 81 1 522 62 270 8 520 511 0 0 524 82 3 523 6 0 3 81
 1 511 64 239 8 522 116 0 0 525 83 3 524 .909803921568627 .572549019607843 .1647
05882352941 98 6 525 80 97 114 116 32 49 74 20 513 5 0 0 520 522 517 511 116 0 0
 0 0 0 0 0 0 0 0 0 0 0 0 0 84 6 512 Part 181 1 107 122 184 21 526 0 0 0 527 70 1
08 0 4 T21 0 0 3 20 1 528 528 13 109 39 0 21 0 529 0 0 530 0 51 110 38 0 529 531
 0 0 -0 661003109839784e-31 254e-6 0 0 -1 1.0795 -1 0 0 31 111 63 0 532 533 0 0
 +0 660925344768038e-31 0 0 0 1 1 0 0 1.079373 19 112 13 0 21 530 0 534 V0 16 11
3 7 535 ?536 0 537 538 0 0 21 81 1 535 45 198 113 0 0 539 540 541 17 536 0 542 5
36 536 0 543 113 0 0 +16 537 28 539 ?544 113 532 533 0 0 21 31 538 9 0 113 545 5
33 0 +0 661003109839784e-31 254e-6 0 0 1 1 0 0 1.0795 31 545 113 0 546 0 538 0 +
0 660925344768038e-31 254e-6 0 0 1 1 0 0 1.079373 31 533 33 0 537 538 111 0 +0 6
61003109839784e-31 0 0 0 1 1 0 0 1.0795 16 546 85 547 ?548 532 0 545 0 0 21 81 1
 547 117 198 546 0 0 549 550 551 17 548 0 552 548 548 0 553 546 0 0 +16 532 79 5
49 ?554 537 546 111 0 0 21 81 1 549 116 198 532 0 0 555 547 556 17 554 0 557 554
 554 0 558 532 0 0 +15 557 61 0 554 559 560 17 558 0 561 558 558 0 554 532 0 0 -
15 561 94 0 558 562 0 14 562 95 550 ?0 559 552 109 563 -0 0 0 559 534 81 1 550 1
18 198 562 0 0 547 564 565 14 559 23 564 ?562 566 557 109 531 -0 0 562 566 534 1
5 552 93 0 548 562 561 51 563 110 0 562 0 567 0 +0 660925344768038e-31 -.025146
 0 0 1 1.079373 1 0 0 13 534 14 0 0 0 0 0 0 112 529 14 529 35 540 ?566 0 568 109
 110 -0 0 566 0 534 81 1 540 46 198 529 0 0 535 555 569 14 566 1 570 ?559 529 57
1 109 567 +0 0 559 529 534 15 568 34 0 543 529 572 17 543 0 568 543 543 0 536 11
3 0 0 -15 572 36 0 544 529 0 17 544 0 572 544 544 0 573 537 0 0 +17 573 0 560 57
3 573 0 544 537 0 0 -15 560 27 0 573 559 0 81 1 570 120 198 566 0 0 564 0 574 15
 571 69 0 553 566 542 50 567 3 0 566 563 531 0 +0 0 254e-6 0 0 1 1 0 0 50 531 32
 0 559 567 110 0 +0 0 0 0 0 1 1 0 0 17 553 0 571 553 553 0 548 546 0 0 -15 542 6
 0 536 566 0 81 1 564 119 198 559 0 0 550 570 575 82 3 574 10 2 2 82 3 575 10 1
 2 81 1 555 49 198 21 0 526 540 549 576 82 3 569 6 0 2 81 1 526 121 239 21 555 1
07 0 0 577 82 3 576 6 0 3 98 6 577 80 97 114 116 32 49 82 3 565 10 0 2 82 3 556
 10 0 1 82 3 551 10 1 1 81 1 539 44 198 537 0 0 0 535 578 82 3 578 6 0 1 82 3 54
1 6 1 1 19 530 40 0 21 0 112 109 S0 74 20 528 3 0 0 570 526 107 0 0 0 0 0 0 0 0
 0 0 0 0 0 0 0 0 0 84 6 527 Part 181 1 100 65 184 94 579 0 0 0 580 70 101 0 4 T9
4 0 0 5 20 1 581 581 13 102 29 0 94 0 582 0 0 583 0 53 103 57 0 582 0 0 0 -11698
11629475368e-32 0 .0054878792680437 .077724 0 0 1 -1 0 0 19 104 35 0 94 583 0 58
4 V0 19 583 28 0 94 0 104 102 S0 13 584 34 0 0 0 0 0 0 104 582 14 582 45 585 ?0
 0 0 102 103 -0 0 0 0 584 81 1 585 63 263 582 586 0 0 0 587 81 1 586 60 198 582
 0 585 0 588 589 83 3 587 .231372549019608 .380392156862745 .705882352941177 81
 1 588 61 198 94 0 590 586 0 591 82 3 589 6 0 2 81 1 590 62 270 94 588 579 0 0 5
92 82 3 591 6 0 3 81 1 579 64 239 94 590 100 0 0 593 83 3 592 .231372549019608 .
380392156862745 .705882352941177 98 6 593 80 97 114 116 32 49 74 20 581 5 0 0 58
8 590 585 579 100 0 0 0 0 0 0 0 0 0 0 0 0 0 0 0 84 6 580 Part 181 1 92 65 184 89
 594 0 0 0 595 70 93 0 4 T89 0 0 5 20 1 596 596 13 95 29 0 89 0 597 0 0 598 0 53
 96 57 0 597 0 0 0 -4110276722639185e-34 0 3974869371963645e-21 .002286 0 0 1 -1
 0 0 19 97 35 0 89 598 0 599 V0 19 598 28 0 89 0 97 95 S0 13 599 34 0 0 0 0 0 0
 97 597 14 597 45 600 ?0 0 0 95 96 -0 0 0 0 599 81 1 600 63 263 597 601 0 0 0 60
2 81 1 601 60 198 597 0 600 0 603 604 83 3 602 .752941176470588 0 0 81 1 603 61
 198 89 0 605 601 0 606 82 3 604 6 0 2 81 1 605 62 270 89 603 594 0 0 607 82 3 6
06 6 0 3 81 1 594 64 239 89 605 92 0 0 608 83 3 607 .752941176470588 0 0 98 6 60
8 80 97 114 116 32 49 74 20 596 5 0 0 603 605 600 594 92 0 0 0 0 0 0 0 0 0 0 0 0
 0 0 0 84 6 595 Part 181 1 81 67 184 44 609 0 0 0 610 70 82 0 4 T44 0 0 5 20 1 6
11 611 13 84 29 0 44 0 612 0 0 613 0 54 85 57 0 612 0 0 0 --1727947212398775e-34
 0 94393114665669e-18 0 0 1 -2486003597495035e-20 .0015494 1 0 0 29 86 24 0 88 6
14 0 -172462905634581e-33 0 .001643593662887355 19 87 35 0 44 613 0 615 V0 18 88
 22 616 617 0 618 86 ?44 81 1 616 61 198 88 0 0 619 620 621 17 617 0 622 617 617
 88 0 0 0 0 ?18 618 17 619 623 88 0 614 ?44 81 1 619 60 198 618 0 0 0 616 624 17
 623 0 625 623 623 618 0 0 0 0 ?29 614 19 0 618 0 86 -172462905634581e-33 0 -.00
145480743355663 15 625 44 0 623 612 0 14 612 45 626 ?0 0 622 84 85 -0 0 0 0 615
 81 1 626 65 263 612 620 0 0 0 627 15 622 59 0 617 612 625 13 615 34 0 0 0 0 0 0
 87 612 81 1 620 62 198 612 0 626 616 628 629 83 3 627 .874509803921569 .4470588
23529412 .3176470588235295 81 1 628 63 198 44 0 630 620 0 631 82 3 629 6 0 2 81
 1 630 64 270 44 628 609 0 0 632 82 3 631 6 0 3 81 1 609 66 239 44 630 81 0 0 63
3 83 3 632 .874509803921569 .447058823529412 .3176470588235295 98 6 633 80 97 11
4 116 32 49 82 3 624 6 0 0 82 3 621 6 1 0 19 613 28 0 44 0 87 84 S0 74 20 611 5
 0 0 628 630 626 609 81 0 0 0 0 0 0 0 0 0 0 0 0 0 0 0 84 6 610 Part 181 1 71 122
 184 68 634 0 0 0 635 70 72 0 4 T68 0 0 3 20 1 636 636 13 74 39 0 68 0 637 0 0 6
38 0 51 75 38 0 637 639 0 0 -0 1049828468569068e-31 254e-6 0 0 -1 1.7145 -1 0 0
 31 76 63 0 640 641 0 0 +0 1049750703497322e-31 0 0 0 1 1 0 0 1.714373 19 77 13
 0 68 638 0 642 V0 16 78 7 643 ?644 0 645 646 0 0 68 81 1 643 45 198 78 0 0 647
 648 649 17 644 0 650 644 644 0 651 78 0 0 +16 645 28 647 ?652 78 640 641 0 0 68
 31 646 9 0 78 653 641 0 +0 1049828468569068e-31 254e-6 0 0 1 1 0 0 1.7145 31 65
3 113 0 654 0 646 0 +0 1049750703497322e-31 254e-6 0 0 1 1 0 0 1.714373 31 641 3
3 0 645 646 76 0 +0 1049828468569068e-31 0 0 0 1 1 0 0 1.7145 16 654 85 655 ?656
 640 0 653 0 0 68 81 1 655 117 198 654 0 0 657 658 659 17 656 0 660 656 656 0 66
1 654 0 0 +16 640 79 657 ?662 645 654 76 0 0 68 81 1 657 116 198 640 0 0 663 655
 664 17 662 0 665 662 662 0 666 640 0 0 +15 665 61 0 662 667 668 17 666 0 669 66
6 666 0 662 640 0 0 -15 669 94 0 666 670 0 14 670 95 658 ?0 667 660 74 671 -0 0
 0 667 642 81 1 658 118 198 670 0 0 655 672 673 14 667 23 672 ?670 674 665 74 63
9 -0 0 670 674 642 15 660 93 0 656 670 669 51 671 110 0 670 0 675 0 +0 104975070
3497322e-31 -.025146 0 0 1 1.714373 1 0 0 13 642 14 0 0 0 0 0 0 77 637 14 637 35
 648 ?674 0 676 74 75 -0 0 674 0 642 81 1 648 46 198 637 0 0 643 663 677 14 674
 1 678 ?667 637 679 74 675 +0 0 667 637 642 15 676 34 0 651 637 680 17 651 0 676
 651 651 0 644 78 0 0 -15 680 36 0 652 637 0 17 652 0 680 652 652 0 681 645 0 0
 +17 681 0 668 681 681 0 652 645 0 0 -15 668 27 0 681 667 0 81 1 678 120 198 674
 0 0 672 0 682 15 679 69 0 661 674 650 50 675 3 0 674 671 639 0 +0 0 254e-6 0 0
 1 1 0 0 50 639 32 0 667 675 75 0 +0 0 0 0 0 1 1 0 0 17 661 0 679 661 661 0 656
 654 0 0 -15 650 6 0 644 674 0 81 1 672 119 198 667 0 0 658 678 683 82 3 682 10
 2 2 82 3 683 10 1 2 81 1 663 49 198 68 0 634 648 657 684 82 3 677 6 0 2 81 1 63
4 121 239 68 663 71 0 0 685 82 3 684 6 0 3 98 6 685 80 97 114 116 32 49 82 3 673
 10 0 2 82 3 664 10 0 1 82 3 659 10 1 1 81 1 647 44 198 645 0 0 0 643 686 82 3 6
86 6 0 1 82 3 649 6 1 1 19 638 40 0 68 0 77 74 S0 74 20 636 3 0 0 678 634 71 0 0
 0 0 0 0 0 0 0 0 0 0 0 0 0 0 0 84 6 635 Part 181 1 62 65 184 32 687 0 0 0 688 70
 63 0 4 T32 0 0 5 20 1 689 689 13 65 29 0 32 0 690 0 0 691 0 53 66 57 0 690 0 0
 0 -328822137811135e-32 0 -.000268978422445474 .018288 0 0 1 -1 0 0 19 67 35 0 3
2 691 0 692 V0 19 691 28 0 32 0 67 65 S0 13 692 34 0 0 0 0 0 0 67 690 14 690 45
 693 ?0 0 0 65 66 -0 0 0 0 692 81 1 693 63 263 690 694 0 0 0 695 81 1 694 60 198
 690 0 693 0 696 697 83 3 695 .3411764705882355 .776470588235294 .74117647058823
5 81 1 696 61 198 32 0 698 694 0 699 82 3 697 6 0 2 81 1 698 62 270 32 696 687 0
 0 700 82 3 699 6 0 3 81 1 687 64 239 32 698 62 0 0 701 83 3 700 .34117647058823
55 .776470588235294 .741176470588235 98 6 701 80 97 114 116 32 49 74 20 689 5 0
 0 696 698 693 687 62 0 0 0 0 0 0 0 0 0 0 0 0 0 0 0 84 6 688 Part 181 1 52 67 18
4 9 702 0 0 0 703 70 53 0 4 T9 0 0 5 20 1 704 704 13 55 29 0 9 0 705 0 0 706 0 5
4 56 57 0 705 0 0 0 -433680868994202e-33 0 .0012450987891258 0 0 1 .001646402906
51554 .0512064 1 0 0 29 57 24 0 59 707 0 433680868994202e-33 0 .052425024135197
 19 58 35 0 9 706 0 708 V0 18 59 22 709 710 0 711 57 ?9 81 1 709 61 198 59 0 0 7
12 713 714 17 710 0 715 710 710 59 0 0 0 0 ?18 711 17 712 716 59 0 707 ?9 81 1 7
12 60 198 711 0 0 0 709 717 17 716 0 718 716 716 711 0 0 0 0 ?29 707 19 0 711 0
 57 433680868994202e-33 0 -.0499348265569454 15 718 44 0 716 705 0 14 705 45 719
 ?0 0 715 55 56 -0 0 0 0 708 81 1 719 65 263 705 713 0 0 0 720 15 715 59 0 710 7
05 718 13 708 34 0 0 0 0 0 0 58 705 81 1 713 62 198 705 0 719 709 721 722 83 3 7
20 .6 .3529411764705885 .0549019607843137 81 1 721 63 198 9 0 723 713 0 724 82 3
 722 6 0 2 81 1 723 64 270 9 721 702 0 0 725 82 3 724 6 0 3 81 1 702 66 239 9 72
3 52 0 0 726 83 3 725 .6 .3529411764705885 .0549019607843137 98 6 726 80 97 114
 116 32 49 82 3 717 6 0 0 82 3 714 6 1 0 19 706 28 0 9 0 58 55 S0 74 20 704 5 0
 0 721 723 719 702 52 0 0 0 0 0 0 0 0 0 0 0 0 0 0 0 84 6 703 Part 181 1 42 67 18
4 39 727 0 0 0 728 70 43 0 4 T39 0 0 5 20 1 729 729 13 45 29 0 39 0 730 0 0 731
 0 54 46 57 0 730 0 0 0 -813151629364128e-34 0 -2822654043655325e-20 0 0 1 -.000
1709042183389515 .00482141948340493 1 0 0 29 47 24 0 49 732 0 681488611927915e-3
4 0 .00479016298129264 19 48 35 0 39 731 0 733 V0 18 49 22 734 735 0 736 47 ?39
 81 1 734 61 198 49 0 0 737 738 739 17 735 0 740 735 735 49 0 0 0 0 ?18 736 17 7
37 741 49 0 732 ?39 81 1 737 60 198 736 0 0 0 734 742 17 741 0 743 741 741 736 0
 0 0 0 ?29 732 19 0 736 0 47 681488611927915e-34 0 -.00484661606216594 15 743 44
 0 741 730 0 14 730 45 744 ?0 0 740 45 46 -0 0 0 0 733 81 1 744 65 263 730 738 0
 0 0 745 15 740 59 0 735 730 743 13 733 34 0 0 0 0 0 0 48 730 81 1 738 62 198 73
0 0 744 734 746 747 83 3 745 .0823529411764706 .447058823529412 .662745098039216
 81 1 746 63 198 39 0 748 738 0 749 82 3 747 9 0 2 81 1 748 64 270 39 746 727 0
 0 750 82 3 749 9 0 3 81 1 727 66 239 39 748 42 0 0 751 83 3 750 .08235294117647
06 .447058823529412 .662745098039216 98 6 751 80 97 114 116 32 49 82 3 742 9 0 0
 82 3 739 9 1 0 19 731 28 0 39 0 48 45 S0 74 20 729 5 0 0 746 748 744 727 42 0 0
 0 0 0 0 0 0 0 0 0 0 0 0 0 84 6 728 Part 181 1 30 84 184 27 752 0 0 0 753 70 31
 0 4 T27 0 0 5 20 1 754 754 13 34 62 0 27 0 755 0 0 756 0 51 35 61 0 755 757 0 0
 -.00254 0 2222865475684365e-33 -1 0 0 .0363021481333558 0 0 1 31 36 50 0 758 75
9 0 0 +0 0 278016722335824e-32 1 0 0 0 0 -1 .045403576366572 19 37 19 0 27 756 0
 760 V0 16 38 13 761 ?762 0 763 764 0 0 27 81 1 761 72 198 38 0 0 765 766 767 17
 762 0 768 762 762 0 769 38 0 0 +16 763 8 770 ?771 38 758 772 0 0 27 31 764 15 0
 38 772 759 0 +.00254 0 278016722335824e-32 1 0 0 0 0 -1 .045403576366572 31 772
 10 0 763 0 764 0 +.00254 0 2222865475684365e-33 1 0 0 0 0 -1 .0363021481333558
 31 759 51 0 773 764 36 0 +0 0 2222865475684365e-33 1 0 0 0 0 -1 .03630214813335
58 16 773 45 774 ?775 758 0 759 0 0 27 81 1 774 69 198 773 0 0 0 770 776 17 775
 0 777 775 775 0 778 773 0 0 +16 758 41 765 ?779 763 773 36 0 0 27 81 1 765 71 1
98 758 0 0 770 761 780 17 779 0 781 779 779 0 782 758 0 0 +15 781 54 0 779 783 0
 17 782 0 784 782 782 0 779 758 0 0 -15 784 40 0 782 785 0 14 785 34 786 ?0 787
 777 34 788 -0 0 0 787 760 81 1 786 82 263 785 789 0 790 0 791 14 787 1 790 ?785
 783 792 34 793 +0 0 785 783 760 15 777 39 0 775 785 784 50 788 49 0 785 793 757
 0 +0 0 0 1 0 0 0 1 0 13 760 20 0 0 0 0 0 0 37 755 14 755 57 794 ?783 0 795 34 3
5 +0 0 783 0 760 81 1 794 79 263 755 766 0 0 796 797 14 783 53 796 ?787 755 798
 34 757 -0 0 787 755 760 15 795 56 0 771 755 799 17 771 0 795 771 771 0 800 763
 0 0 +15 799 58 0 778 755 0 17 778 0 799 778 778 0 775 773 0 0 -17 800 0 792 800
 800 0 771 763 0 0 -15 792 6 0 800 787 768 15 768 7 0 762 787 0 81 1 796 80 263
 783 801 0 794 790 802 15 798 52 0 769 783 781 51 757 60 0 783 788 35 0 -.00254
 0 278016722335824e-32 -1 0 0 .045403576366572 0 0 1 17 769 0 798 769 769 0 762
 38 0 0 -81 1 801 76 198 783 0 796 803 804 805 81 1 790 81 263 787 803 0 796 786
 806 83 3 802 .3254901960784315 .529411764705882 .752941176470588 81 1 803 75 19
8 787 0 790 789 801 807 83 3 806 .3254901960784315 .529411764705882 .75294117647
0588 81 1 789 74 198 785 0 786 766 803 808 82 3 807 9 2 2 81 1 766 73 198 755 0
 794 761 789 809 82 3 808 9 1 2 82 3 809 9 0 2 81 1 804 77 198 27 0 810 801 0 81
1 82 3 805 9 3 2 81 1 810 78 270 27 804 752 0 0 812 82 3 811 9 0 3 81 1 752 83 2
39 27 810 30 0 0 813 83 3 812 .3254901960784315 .529411764705882 .75294117647058
8 98 6 813 80 97 114 116 32 50 83 3 797 .3254901960784315 .529411764705882 .7529
41176470588 50 793 3 0 787 0 788 0 +.00254 0 0 1 0 0 0 1 0 83 3 791 .32549019607
84315 .529411764705882 .752941176470588 81 1 770 70 198 763 0 0 774 765 814 82 3
 780 9 2 1 82 3 814 9 1 1 82 3 776 9 0 1 82 3 767 9 3 1 19 756 63 0 27 0 37 34 S
0 74 20 754 5 0 0 804 810 786 752 30 0 0 0 0 0 0 0 0 0 0 0 0 0 0 0 84 6 753 Part
 281 1 18 122 184 15 815 0 0 0 816 70 19 0 4 T15 0 0 3 20 1 817 817 13 22 39 0 1
5 0 818 0 0 819 0 51 23 38 0 818 820 0 0 -0 3888253587292845e-32 254e-6 0 0 -1 .
635 -1 0 0 31 24 63 0 821 822 0 0 +0 388747593657539e-31 0 0 0 1 1 0 0 .634873 1
9 25 13 0 15 819 0 823 V0 16 26 7 824 ?825 0 826 827 0 0 15 81 1 824 45 198 26 0
 0 828 829 830 17 825 0 831 825 825 0 832 26 0 0 +16 826 28 828 ?833 26 821 822
 0 0 15 31 827 9 0 26 834 822 0 +0 3888253587292845e-32 254e-6 0 0 1 1 0 0 .635
 31 834 113 0 835 0 827 0 +0 388747593657539e-31 254e-6 0 0 1 1 0 0 .634873 31 8
22 33 0 826 827 24 0 +0 3888253587292845e-32 0 0 0 1 1 0 0 .635 16 835 85 836 ?8
37 821 0 834 0 0 15 81 1 836 117 198 835 0 0 838 839 840 17 837 0 841 837 837 0
 842 835 0 0 +16 821 79 838 ?843 826 835 24 0 0 15 81 1 838 116 198 821 0 0 844
 836 845 17 843 0 846 843 843 0 847 821 0 0 +15 846 61 0 843 848 849 17 847 0 85
0 847 847 0 843 821 0 0 -15 850 94 0 847 851 0 14 851 95 839 ?0 848 841 22 852 -
0 0 0 848 823 81 1 839 118 198 851 0 0 836 853 854 14 848 23 853 ?851 855 846 22
 820 -0 0 851 855 823 15 841 93 0 837 851 850 51 852 110 0 851 0 856 0 +0 388747
593657539e-31 -.025146 0 0 1 .634873 1 0 0 13 823 14 0 0 0 0 0 0 25 818 14 818 3
5 829 ?855 0 857 22 23 -0 0 855 0 823 81 1 829 46 198 818 0 0 824 844 858 14 855
 1 859 ?848 818 860 22 856 +0 0 848 818 823 15 857 34 0 832 818 861 17 832 0 857
 832 832 0 825 26 0 0 -15 861 36 0 833 818 0 17 833 0 861 833 833 0 862 826 0 0
 +17 862 0 849 862 862 0 833 826 0 0 -15 849 27 0 862 848 0 81 1 859 120 198 855
 0 0 853 0 863 15 860 69 0 842 855 831 50 856 3 0 855 852 820 0 +0 0 254e-6 0 0
 1 1 0 0 50 820 32 0 848 856 23 0 +0 0 0 0 0 1 1 0 0 17 842 0 860 842 842 0 837
 835 0 0 -15 831 6 0 825 855 0 81 1 853 119 198 848 0 0 839 859 864 82 3 863 10
 2 2 82 3 864 10 1 2 81 1 844 49 198 15 0 815 829 838 865 82 3 858 6 0 2 81 1 81
5 121 239 15 844 18 0 0 866 82 3 865 6 0 3 98 6 866 80 97 114 116 32 49 82 3 854
 10 0 2 82 3 845 10 0 1 82 3 840 10 1 1 81 1 828 44 198 826 0 0 0 824 867 82 3 8
67 6 0 1 82 3 830 6 1 1 19 819 40 0 15 0 25 22 S0 74 20 817 3 0 0 859 815 18 0 0
 0 0 0 0 0 0 0 0 0 0 0 0 0 0 0 84 6 816 Part 181 1 6 84 184 3 868 0 0 0 869 70 7
 0 4 T3 0 0 5 20 1 870 870 13 10 62 0 3 0 871 0 0 872 0 51 11 61 0 871 873 0 0 -
0 371748686717763e-32 .00254 0 0 -1 .0607111678202382 -1 0 0 31 12 50 0 874 875
 0 0 +0 4382767969751375e-33 0 0 0 1 1 0 0 .0715760327435279 19 13 19 0 3 872 0
 876 V0 16 14 13 877 ?878 0 879 880 0 0 3 81 1 877 72 198 14 0 0 881 882 883 17
 878 0 884 878 878 0 885 14 0 0 +16 879 8 886 ?887 14 874 888 0 0 3 31 880 15 0
 14 888 875 0 +0 4382767969751375e-33 .00254 0 0 1 1 0 0 .0715760327435279 31 88
8 10 0 879 0 880 0 +0 371748686717763e-32 .00254 0 0 1 1 0 0 .0607111678202382 3
1 875 51 0 889 880 12 0 +0 371748686717763e-32 0 0 0 1 1 0 0 .0607111678202382 1
6 889 45 890 ?891 874 0 875 0 0 3 81 1 890 69 198 889 0 0 0 886 892 17 891 0 893
 891 891 0 894 889 0 0 +16 874 41 881 ?895 879 889 12 0 0 3 81 1 881 71 198 874
 0 0 886 877 896 17 895 0 897 895 895 0 898 874 0 0 +15 897 54 0 895 899 0 17 89
8 0 900 898 898 0 895 874 0 0 -15 900 40 0 898 901 0 14 901 34 902 ?0 903 893 10
 904 -0 0 0 903 876 81 1 902 82 263 901 905 0 906 0 907 14 903 1 906 ?901 899 90
8 10 909 +0 0 901 899 876 15 893 39 0 891 901 900 50 904 49 0 901 909 873 0 +0 0
 0 0 0 1 1 0 0 13 876 20 0 0 0 0 0 0 13 871 14 871 57 910 ?899 0 911 10 11 +0 0
 899 0 876 81 1 910 79 263 871 882 0 0 912 913 14 899 53 912 ?903 871 914 10 873
 -0 0 903 871 876 15 911 56 0 887 871 915 17 887 0 911 887 887 0 916 879 0 0 +15
 915 58 0 894 871 0 17 894 0 915 894 894 0 891 889 0 0 -17 916 0 908 916 916 0 8
87 879 0 0 -15 908 6 0 916 903 884 15 884 7 0 878 903 0 81 1 912 80 263 899 917
 0 910 906 918 15 914 52 0 885 899 897 51 873 60 0 899 904 11 0 -0 4382767969751
375e-33 .00254 0 0 -1 .0715760327435279 -1 0 0 17 885 0 914 885 885 0 878 14 0 0
 -81 1 917 76 198 899 0 912 919 920 921 81 1 906 81 263 903 919 0 912 902 922 83
 3 918 .980392156862745 .713725490196078 .00392156862745098 81 1 919 75 198 903
 0 906 905 917 923 83 3 922 .980392156862745 .713725490196078 .00392156862745098
 81 1 905 74 198 901 0 902 882 919 924 82 3 923 9 2 2 81 1 882 73 198 871 0 910
 877 905 925 82 3 924 9 1 2 82 3 925 9 0 2 81 1 920 77 198 3 0 926 917 0 927 82
 3 921 9 3 2 81 1 926 78 270 3 920 868 0 0 928 82 3 927 9 0 3 81 1 868 83 239 3
 926 6 0 0 929 83 3 928 .980392156862745 .713725490196078 .00392156862745098 98
 6 929 80 97 114 116 32 50 83 3 913 .980392156862745 .713725490196078 .003921568
62745098 50 909 3 0 903 0 904 0 +0 0 .00254 0 0 1 1 0 0 83 3 907 .98039215686274
5 .713725490196078 .00392156862745098 81 1 886 70 198 879 0 0 890 881 930 82 3 8
96 9 2 1 82 3 930 9 1 1 82 3 892 9 0 1 82 3 883 9 3 1 19 872 63 0 3 0 13 10 S0 7
4 20 870 5 0 0 920 926 902 868 6 0 0 0 0 0 0 0 0 0 0 0 0 0 0 0 84 6 869 Part 21
 0 
